<mxfile host="app.diagrams.net" modified="2023-08-03T00:26:38.033Z" agent="Mozilla/5.0 (Windows NT 10.0; Win64; x64) AppleWebKit/537.36 (KHTML, like Gecko) Chrome/115.0.0.0 Safari/537.36" etag="whMT1a9OmV26Acb10Ptk" version="21.6.6" type="device">
  <diagram id="C5RBs43oDa-KdzZeNtuy" name="Page-1">
    <mxGraphModel dx="1050" dy="615" grid="1" gridSize="10" guides="1" tooltips="1" connect="1" arrows="1" fold="1" page="1" pageScale="1" pageWidth="827" pageHeight="1169" math="0" shadow="0">
      <root>
        <mxCell id="WIyWlLk6GJQsqaUBKTNV-0" />
        <mxCell id="WIyWlLk6GJQsqaUBKTNV-1" parent="WIyWlLk6GJQsqaUBKTNV-0" />
        <mxCell id="WIyWlLk6GJQsqaUBKTNV-2" value="" style="rounded=0;html=1;jettySize=auto;orthogonalLoop=1;fontSize=11;endArrow=block;endFill=0;endSize=8;strokeWidth=1;shadow=0;labelBackgroundColor=none;edgeStyle=orthogonalEdgeStyle;" parent="WIyWlLk6GJQsqaUBKTNV-1" source="WIyWlLk6GJQsqaUBKTNV-3" target="WIyWlLk6GJQsqaUBKTNV-6" edge="1">
          <mxGeometry relative="1" as="geometry" />
        </mxCell>
        <mxCell id="WIyWlLk6GJQsqaUBKTNV-3" value="start" style="rounded=1;whiteSpace=wrap;html=1;fontSize=12;glass=0;strokeWidth=1;shadow=0;" parent="WIyWlLk6GJQsqaUBKTNV-1" vertex="1">
          <mxGeometry x="70" y="10" width="100" height="30" as="geometry" />
        </mxCell>
        <mxCell id="WIyWlLk6GJQsqaUBKTNV-4" value="true" style="rounded=0;html=1;jettySize=auto;orthogonalLoop=1;fontSize=11;endArrow=block;endFill=0;endSize=8;strokeWidth=1;shadow=0;labelBackgroundColor=none;edgeStyle=orthogonalEdgeStyle;entryX=0.5;entryY=0;entryDx=0;entryDy=0;" parent="WIyWlLk6GJQsqaUBKTNV-1" source="WIyWlLk6GJQsqaUBKTNV-6" target="CC-2NxR86DTvudhMBUXw-4" edge="1">
          <mxGeometry x="0.0128" y="29" relative="1" as="geometry">
            <mxPoint y="-1" as="offset" />
            <mxPoint x="120" y="220" as="targetPoint" />
          </mxGeometry>
        </mxCell>
        <mxCell id="WIyWlLk6GJQsqaUBKTNV-6" value="表达式" style="rhombus;whiteSpace=wrap;html=1;shadow=0;fontFamily=Helvetica;fontSize=12;align=center;strokeWidth=1;spacing=6;spacingTop=-4;" parent="WIyWlLk6GJQsqaUBKTNV-1" vertex="1">
          <mxGeometry x="70" y="90" width="100" height="80" as="geometry" />
        </mxCell>
        <mxCell id="WIyWlLk6GJQsqaUBKTNV-8" value="" style="rounded=0;html=1;jettySize=auto;orthogonalLoop=1;fontSize=11;endArrow=block;endFill=0;endSize=8;strokeWidth=1;shadow=0;labelBackgroundColor=none;edgeStyle=orthogonalEdgeStyle;exitX=0.5;exitY=1;exitDx=0;exitDy=0;" parent="WIyWlLk6GJQsqaUBKTNV-1" source="CC-2NxR86DTvudhMBUXw-4" target="WIyWlLk6GJQsqaUBKTNV-11" edge="1">
          <mxGeometry x="0.325" y="20" relative="1" as="geometry">
            <mxPoint as="offset" />
            <mxPoint x="120" y="280" as="sourcePoint" />
          </mxGeometry>
        </mxCell>
        <mxCell id="WIyWlLk6GJQsqaUBKTNV-11" value="剩余代码" style="rounded=1;whiteSpace=wrap;html=1;fontSize=12;glass=0;strokeWidth=1;shadow=0;" parent="WIyWlLk6GJQsqaUBKTNV-1" vertex="1">
          <mxGeometry x="60" y="350" width="120" height="40" as="geometry" />
        </mxCell>
        <mxCell id="CC-2NxR86DTvudhMBUXw-2" value="" style="endArrow=classic;html=1;rounded=0;exitX=1;exitY=0.5;exitDx=0;exitDy=0;" parent="WIyWlLk6GJQsqaUBKTNV-1" source="WIyWlLk6GJQsqaUBKTNV-6" edge="1">
          <mxGeometry width="50" height="50" relative="1" as="geometry">
            <mxPoint x="170" y="190" as="sourcePoint" />
            <mxPoint x="120" y="310" as="targetPoint" />
            <Array as="points">
              <mxPoint x="280" y="130" />
              <mxPoint x="280" y="190" />
              <mxPoint x="280" y="260" />
              <mxPoint x="280" y="310" />
            </Array>
          </mxGeometry>
        </mxCell>
        <mxCell id="CC-2NxR86DTvudhMBUXw-3" value="false" style="edgeLabel;html=1;align=center;verticalAlign=middle;resizable=0;points=[];" parent="CC-2NxR86DTvudhMBUXw-2" vertex="1" connectable="0">
          <mxGeometry x="-0.6918" y="1" relative="1" as="geometry">
            <mxPoint y="-9" as="offset" />
          </mxGeometry>
        </mxCell>
        <mxCell id="CC-2NxR86DTvudhMBUXw-4" value="语句" style="rounded=1;whiteSpace=wrap;html=1;" parent="WIyWlLk6GJQsqaUBKTNV-1" vertex="1">
          <mxGeometry x="80" y="230" width="80" height="40" as="geometry" />
        </mxCell>
        <mxCell id="CC-2NxR86DTvudhMBUXw-6" value="" style="rounded=0;html=1;jettySize=auto;orthogonalLoop=1;fontSize=11;endArrow=block;endFill=0;endSize=8;strokeWidth=1;shadow=0;labelBackgroundColor=none;edgeStyle=orthogonalEdgeStyle;" parent="WIyWlLk6GJQsqaUBKTNV-1" source="CC-2NxR86DTvudhMBUXw-7" target="CC-2NxR86DTvudhMBUXw-9" edge="1">
          <mxGeometry relative="1" as="geometry" />
        </mxCell>
        <mxCell id="CC-2NxR86DTvudhMBUXw-7" value="" style="rounded=1;whiteSpace=wrap;html=1;fontSize=12;glass=0;strokeWidth=1;shadow=0;" parent="WIyWlLk6GJQsqaUBKTNV-1" vertex="1">
          <mxGeometry x="577" y="10" width="100" height="30" as="geometry" />
        </mxCell>
        <mxCell id="CC-2NxR86DTvudhMBUXw-8" value="true" style="rounded=0;html=1;jettySize=auto;orthogonalLoop=1;fontSize=11;endArrow=block;endFill=0;endSize=8;strokeWidth=1;shadow=0;labelBackgroundColor=none;edgeStyle=orthogonalEdgeStyle;entryX=0.5;entryY=0;entryDx=0;entryDy=0;" parent="WIyWlLk6GJQsqaUBKTNV-1" source="CC-2NxR86DTvudhMBUXw-9" target="CC-2NxR86DTvudhMBUXw-12" edge="1">
          <mxGeometry x="0.0128" y="29" relative="1" as="geometry">
            <mxPoint y="-1" as="offset" />
            <mxPoint x="627" y="220" as="targetPoint" />
          </mxGeometry>
        </mxCell>
        <mxCell id="CC-2NxR86DTvudhMBUXw-9" value="表达式" style="rhombus;whiteSpace=wrap;html=1;shadow=0;fontFamily=Helvetica;fontSize=12;align=center;strokeWidth=1;spacing=6;spacingTop=-4;" parent="WIyWlLk6GJQsqaUBKTNV-1" vertex="1">
          <mxGeometry x="577" y="90" width="100" height="80" as="geometry" />
        </mxCell>
        <mxCell id="CC-2NxR86DTvudhMBUXw-10" value="" style="rounded=0;html=1;jettySize=auto;orthogonalLoop=1;fontSize=11;endArrow=block;endFill=0;endSize=8;strokeWidth=1;shadow=0;labelBackgroundColor=none;edgeStyle=orthogonalEdgeStyle;exitX=0.5;exitY=1;exitDx=0;exitDy=0;" parent="WIyWlLk6GJQsqaUBKTNV-1" source="CC-2NxR86DTvudhMBUXw-12" target="CC-2NxR86DTvudhMBUXw-11" edge="1">
          <mxGeometry x="0.325" y="20" relative="1" as="geometry">
            <mxPoint as="offset" />
            <mxPoint x="627" y="280" as="sourcePoint" />
          </mxGeometry>
        </mxCell>
        <mxCell id="CC-2NxR86DTvudhMBUXw-11" value="剩余代码" style="rounded=1;whiteSpace=wrap;html=1;fontSize=12;glass=0;strokeWidth=1;shadow=0;" parent="WIyWlLk6GJQsqaUBKTNV-1" vertex="1">
          <mxGeometry x="567" y="350" width="120" height="40" as="geometry" />
        </mxCell>
        <mxCell id="CC-2NxR86DTvudhMBUXw-12" value="语句1" style="rounded=1;whiteSpace=wrap;html=1;" parent="WIyWlLk6GJQsqaUBKTNV-1" vertex="1">
          <mxGeometry x="447" y="210" width="80" height="40" as="geometry" />
        </mxCell>
        <mxCell id="CC-2NxR86DTvudhMBUXw-13" value="语句2" style="rounded=1;whiteSpace=wrap;html=1;" parent="WIyWlLk6GJQsqaUBKTNV-1" vertex="1">
          <mxGeometry x="747" y="204" width="80" height="40" as="geometry" />
        </mxCell>
        <mxCell id="CC-2NxR86DTvudhMBUXw-14" value="" style="endArrow=classic;html=1;rounded=0;exitX=1;exitY=0.5;exitDx=0;exitDy=0;entryX=0.5;entryY=0;entryDx=0;entryDy=0;" parent="WIyWlLk6GJQsqaUBKTNV-1" source="CC-2NxR86DTvudhMBUXw-9" target="CC-2NxR86DTvudhMBUXw-13" edge="1">
          <mxGeometry width="50" height="50" relative="1" as="geometry">
            <mxPoint x="607" y="270" as="sourcePoint" />
            <mxPoint x="657" y="220" as="targetPoint" />
            <Array as="points">
              <mxPoint x="787" y="130" />
            </Array>
          </mxGeometry>
        </mxCell>
        <mxCell id="CC-2NxR86DTvudhMBUXw-15" value="false" style="edgeLabel;html=1;align=center;verticalAlign=middle;resizable=0;points=[];" parent="CC-2NxR86DTvudhMBUXw-14" vertex="1" connectable="0">
          <mxGeometry x="0.5611" relative="1" as="geometry">
            <mxPoint y="1" as="offset" />
          </mxGeometry>
        </mxCell>
        <mxCell id="CC-2NxR86DTvudhMBUXw-22" value="" style="endArrow=none;html=1;rounded=0;entryX=0.5;entryY=1;entryDx=0;entryDy=0;" parent="WIyWlLk6GJQsqaUBKTNV-1" target="CC-2NxR86DTvudhMBUXw-13" edge="1">
          <mxGeometry width="50" height="50" relative="1" as="geometry">
            <mxPoint x="627" y="300" as="sourcePoint" />
            <mxPoint x="657" y="220" as="targetPoint" />
            <Array as="points">
              <mxPoint x="787" y="300" />
            </Array>
          </mxGeometry>
        </mxCell>
        <mxCell id="CC-2NxR86DTvudhMBUXw-23" value="" style="rounded=0;html=1;jettySize=auto;orthogonalLoop=1;fontSize=11;endArrow=block;endFill=0;endSize=8;strokeWidth=1;shadow=0;labelBackgroundColor=none;edgeStyle=orthogonalEdgeStyle;" parent="WIyWlLk6GJQsqaUBKTNV-1" source="CC-2NxR86DTvudhMBUXw-24" target="CC-2NxR86DTvudhMBUXw-26" edge="1">
          <mxGeometry relative="1" as="geometry" />
        </mxCell>
        <mxCell id="CC-2NxR86DTvudhMBUXw-24" value="start" style="rounded=1;whiteSpace=wrap;html=1;fontSize=12;glass=0;strokeWidth=1;shadow=0;" parent="WIyWlLk6GJQsqaUBKTNV-1" vertex="1">
          <mxGeometry x="60" y="450" width="100" height="30" as="geometry" />
        </mxCell>
        <mxCell id="CC-2NxR86DTvudhMBUXw-25" value="true" style="rounded=0;html=1;jettySize=auto;orthogonalLoop=1;fontSize=11;endArrow=block;endFill=0;endSize=8;strokeWidth=1;shadow=0;labelBackgroundColor=none;edgeStyle=orthogonalEdgeStyle;entryX=0.5;entryY=0;entryDx=0;entryDy=0;" parent="WIyWlLk6GJQsqaUBKTNV-1" source="CC-2NxR86DTvudhMBUXw-26" target="CC-2NxR86DTvudhMBUXw-29" edge="1">
          <mxGeometry x="0.0128" y="29" relative="1" as="geometry">
            <mxPoint y="-1" as="offset" />
            <mxPoint x="110" y="660" as="targetPoint" />
          </mxGeometry>
        </mxCell>
        <mxCell id="CC-2NxR86DTvudhMBUXw-26" value="表达式1" style="rhombus;whiteSpace=wrap;html=1;shadow=0;fontFamily=Helvetica;fontSize=12;align=center;strokeWidth=1;spacing=6;spacingTop=-4;" parent="WIyWlLk6GJQsqaUBKTNV-1" vertex="1">
          <mxGeometry x="60" y="530" width="100" height="80" as="geometry" />
        </mxCell>
        <mxCell id="CC-2NxR86DTvudhMBUXw-27" value="" style="rounded=0;html=1;jettySize=auto;orthogonalLoop=1;fontSize=11;endArrow=block;endFill=0;endSize=8;strokeWidth=1;shadow=0;labelBackgroundColor=none;edgeStyle=orthogonalEdgeStyle;exitX=0.5;exitY=1;exitDx=0;exitDy=0;" parent="WIyWlLk6GJQsqaUBKTNV-1" source="CC-2NxR86DTvudhMBUXw-29" target="CC-2NxR86DTvudhMBUXw-28" edge="1">
          <mxGeometry x="0.325" y="20" relative="1" as="geometry">
            <mxPoint as="offset" />
            <mxPoint x="110" y="720" as="sourcePoint" />
          </mxGeometry>
        </mxCell>
        <mxCell id="CC-2NxR86DTvudhMBUXw-28" value="剩余代码" style="rounded=1;whiteSpace=wrap;html=1;fontSize=12;glass=0;strokeWidth=1;shadow=0;" parent="WIyWlLk6GJQsqaUBKTNV-1" vertex="1">
          <mxGeometry x="50" y="790" width="120" height="40" as="geometry" />
        </mxCell>
        <mxCell id="CC-2NxR86DTvudhMBUXw-29" value="语句1" style="rounded=1;whiteSpace=wrap;html=1;" parent="WIyWlLk6GJQsqaUBKTNV-1" vertex="1">
          <mxGeometry x="70" y="644" width="80" height="40" as="geometry" />
        </mxCell>
        <mxCell id="CC-2NxR86DTvudhMBUXw-30" value="语句2" style="rounded=1;whiteSpace=wrap;html=1;" parent="WIyWlLk6GJQsqaUBKTNV-1" vertex="1">
          <mxGeometry x="230" y="644" width="80" height="40" as="geometry" />
        </mxCell>
        <mxCell id="CC-2NxR86DTvudhMBUXw-31" value="" style="endArrow=classic;html=1;rounded=0;exitX=1;exitY=0.5;exitDx=0;exitDy=0;entryX=0.5;entryY=0;entryDx=0;entryDy=0;" parent="WIyWlLk6GJQsqaUBKTNV-1" source="CC-2NxR86DTvudhMBUXw-39" target="CC-2NxR86DTvudhMBUXw-30" edge="1">
          <mxGeometry width="50" height="50" relative="1" as="geometry">
            <mxPoint x="90" y="710" as="sourcePoint" />
            <mxPoint x="140" y="660" as="targetPoint" />
            <Array as="points">
              <mxPoint x="270" y="570" />
            </Array>
          </mxGeometry>
        </mxCell>
        <mxCell id="CC-2NxR86DTvudhMBUXw-32" value="true" style="edgeLabel;html=1;align=center;verticalAlign=middle;resizable=0;points=[];" parent="CC-2NxR86DTvudhMBUXw-31" vertex="1" connectable="0">
          <mxGeometry x="0.5611" relative="1" as="geometry">
            <mxPoint y="1" as="offset" />
          </mxGeometry>
        </mxCell>
        <mxCell id="CC-2NxR86DTvudhMBUXw-33" value="" style="endArrow=none;html=1;rounded=0;entryX=0.5;entryY=1;entryDx=0;entryDy=0;" parent="WIyWlLk6GJQsqaUBKTNV-1" target="CC-2NxR86DTvudhMBUXw-30" edge="1">
          <mxGeometry width="50" height="50" relative="1" as="geometry">
            <mxPoint x="110" y="740" as="sourcePoint" />
            <mxPoint x="140" y="660" as="targetPoint" />
            <Array as="points">
              <mxPoint x="270" y="740" />
            </Array>
          </mxGeometry>
        </mxCell>
        <mxCell id="CC-2NxR86DTvudhMBUXw-34" value="语句3" style="rounded=1;whiteSpace=wrap;html=1;" parent="WIyWlLk6GJQsqaUBKTNV-1" vertex="1">
          <mxGeometry x="393.5" y="644" width="80" height="40" as="geometry" />
        </mxCell>
        <mxCell id="CC-2NxR86DTvudhMBUXw-35" value="语句4" style="rounded=1;whiteSpace=wrap;html=1;" parent="WIyWlLk6GJQsqaUBKTNV-1" vertex="1">
          <mxGeometry x="550" y="644" width="80" height="40" as="geometry" />
        </mxCell>
        <mxCell id="CC-2NxR86DTvudhMBUXw-37" value="" style="endArrow=classic;html=1;rounded=0;entryX=0.5;entryY=0;entryDx=0;entryDy=0;" parent="WIyWlLk6GJQsqaUBKTNV-1" source="CC-2NxR86DTvudhMBUXw-39" target="CC-2NxR86DTvudhMBUXw-35" edge="1">
          <mxGeometry width="50" height="50" relative="1" as="geometry">
            <mxPoint x="270" y="570" as="sourcePoint" />
            <mxPoint x="350" y="720" as="targetPoint" />
            <Array as="points">
              <mxPoint x="590" y="570" />
            </Array>
          </mxGeometry>
        </mxCell>
        <mxCell id="CC-2NxR86DTvudhMBUXw-47" value="false" style="edgeLabel;html=1;align=center;verticalAlign=middle;resizable=0;points=[];" parent="CC-2NxR86DTvudhMBUXw-37" vertex="1" connectable="0">
          <mxGeometry x="-0.7644" relative="1" as="geometry">
            <mxPoint as="offset" />
          </mxGeometry>
        </mxCell>
        <mxCell id="CC-2NxR86DTvudhMBUXw-49" value="false" style="edgeLabel;html=1;align=center;verticalAlign=middle;resizable=0;points=[];" parent="CC-2NxR86DTvudhMBUXw-37" vertex="1" connectable="0">
          <mxGeometry x="0.115" relative="1" as="geometry">
            <mxPoint as="offset" />
          </mxGeometry>
        </mxCell>
        <mxCell id="CC-2NxR86DTvudhMBUXw-38" value="" style="endArrow=classic;html=1;rounded=0;entryX=0.5;entryY=0;entryDx=0;entryDy=0;" parent="WIyWlLk6GJQsqaUBKTNV-1" target="CC-2NxR86DTvudhMBUXw-34" edge="1">
          <mxGeometry width="50" height="50" relative="1" as="geometry">
            <mxPoint x="434" y="570" as="sourcePoint" />
            <mxPoint x="350" y="720" as="targetPoint" />
          </mxGeometry>
        </mxCell>
        <mxCell id="CC-2NxR86DTvudhMBUXw-48" value="true" style="edgeLabel;html=1;align=center;verticalAlign=middle;resizable=0;points=[];" parent="CC-2NxR86DTvudhMBUXw-38" vertex="1" connectable="0">
          <mxGeometry x="0.147" y="-1" relative="1" as="geometry">
            <mxPoint as="offset" />
          </mxGeometry>
        </mxCell>
        <mxCell id="CC-2NxR86DTvudhMBUXw-40" value="" style="endArrow=classic;html=1;rounded=0;exitX=1;exitY=0.5;exitDx=0;exitDy=0;entryX=0;entryY=0.5;entryDx=0;entryDy=0;" parent="WIyWlLk6GJQsqaUBKTNV-1" source="CC-2NxR86DTvudhMBUXw-26" target="CC-2NxR86DTvudhMBUXw-39" edge="1">
          <mxGeometry width="50" height="50" relative="1" as="geometry">
            <mxPoint x="160" y="570" as="sourcePoint" />
            <mxPoint x="270" y="644" as="targetPoint" />
            <Array as="points" />
          </mxGeometry>
        </mxCell>
        <mxCell id="CC-2NxR86DTvudhMBUXw-53" value="false" style="edgeLabel;html=1;align=center;verticalAlign=middle;resizable=0;points=[];" parent="CC-2NxR86DTvudhMBUXw-40" vertex="1" connectable="0">
          <mxGeometry x="-0.1681" y="-2" relative="1" as="geometry">
            <mxPoint as="offset" />
          </mxGeometry>
        </mxCell>
        <mxCell id="CC-2NxR86DTvudhMBUXw-42" value="" style="endArrow=classic;html=1;rounded=0;entryX=0.5;entryY=0;entryDx=0;entryDy=0;" parent="WIyWlLk6GJQsqaUBKTNV-1" target="CC-2NxR86DTvudhMBUXw-39" edge="1">
          <mxGeometry width="50" height="50" relative="1" as="geometry">
            <mxPoint x="270" y="570" as="sourcePoint" />
            <mxPoint x="590" y="644" as="targetPoint" />
            <Array as="points" />
          </mxGeometry>
        </mxCell>
        <mxCell id="CC-2NxR86DTvudhMBUXw-39" value="表达式2" style="rhombus;whiteSpace=wrap;html=1;" parent="WIyWlLk6GJQsqaUBKTNV-1" vertex="1">
          <mxGeometry x="235" y="550" width="70" height="40" as="geometry" />
        </mxCell>
        <mxCell id="CC-2NxR86DTvudhMBUXw-43" value="表达式2" style="rhombus;whiteSpace=wrap;html=1;" parent="WIyWlLk6GJQsqaUBKTNV-1" vertex="1">
          <mxGeometry x="398.5" y="550" width="70" height="40" as="geometry" />
        </mxCell>
        <mxCell id="CC-2NxR86DTvudhMBUXw-50" value="" style="endArrow=none;html=1;rounded=0;entryX=0.5;entryY=1;entryDx=0;entryDy=0;" parent="WIyWlLk6GJQsqaUBKTNV-1" edge="1">
          <mxGeometry width="50" height="50" relative="1" as="geometry">
            <mxPoint x="590.14" y="740" as="sourcePoint" />
            <mxPoint x="589.64" y="684" as="targetPoint" />
          </mxGeometry>
        </mxCell>
        <mxCell id="CC-2NxR86DTvudhMBUXw-51" value="" style="endArrow=none;html=1;rounded=0;entryX=0.5;entryY=1;entryDx=0;entryDy=0;" parent="WIyWlLk6GJQsqaUBKTNV-1" target="CC-2NxR86DTvudhMBUXw-34" edge="1">
          <mxGeometry width="50" height="50" relative="1" as="geometry">
            <mxPoint x="434" y="740" as="sourcePoint" />
            <mxPoint x="400" y="690" as="targetPoint" />
          </mxGeometry>
        </mxCell>
        <mxCell id="CC-2NxR86DTvudhMBUXw-52" value="" style="endArrow=classic;html=1;rounded=0;" parent="WIyWlLk6GJQsqaUBKTNV-1" edge="1">
          <mxGeometry width="50" height="50" relative="1" as="geometry">
            <mxPoint x="590" y="740" as="sourcePoint" />
            <mxPoint x="110" y="740" as="targetPoint" />
          </mxGeometry>
        </mxCell>
        <mxCell id="hjbASBU64LTBlGOgySRt-0" value="计算表达式的值" style="rounded=1;whiteSpace=wrap;html=1;" parent="WIyWlLk6GJQsqaUBKTNV-1" vertex="1">
          <mxGeometry x="59.25" y="940" width="80" height="30" as="geometry" />
        </mxCell>
        <mxCell id="hjbASBU64LTBlGOgySRt-1" value="表达式1" style="rhombus;whiteSpace=wrap;html=1;" parent="WIyWlLk6GJQsqaUBKTNV-1" vertex="1">
          <mxGeometry x="65" y="1030" width="75" height="50" as="geometry" />
        </mxCell>
        <mxCell id="hjbASBU64LTBlGOgySRt-3" value="" style="endArrow=classic;html=1;rounded=0;" parent="WIyWlLk6GJQsqaUBKTNV-1" edge="1">
          <mxGeometry width="50" height="50" relative="1" as="geometry">
            <mxPoint x="103" y="970" as="sourcePoint" />
            <mxPoint x="103" y="1030" as="targetPoint" />
          </mxGeometry>
        </mxCell>
        <mxCell id="hjbASBU64LTBlGOgySRt-13" value="Text" style="edgeLabel;html=1;align=center;verticalAlign=middle;resizable=0;points=[];" parent="hjbASBU64LTBlGOgySRt-3" vertex="1" connectable="0">
          <mxGeometry x="0.04" y="1" relative="1" as="geometry">
            <mxPoint as="offset" />
          </mxGeometry>
        </mxCell>
        <mxCell id="hjbASBU64LTBlGOgySRt-4" value="表达式2" style="rhombus;whiteSpace=wrap;html=1;" parent="WIyWlLk6GJQsqaUBKTNV-1" vertex="1">
          <mxGeometry x="64.75" y="1140" width="75" height="50" as="geometry" />
        </mxCell>
        <mxCell id="hjbASBU64LTBlGOgySRt-5" value="" style="endArrow=classic;html=1;rounded=0;" parent="WIyWlLk6GJQsqaUBKTNV-1" edge="1">
          <mxGeometry width="50" height="50" relative="1" as="geometry">
            <mxPoint x="102" y="1080" as="sourcePoint" />
            <mxPoint x="102" y="1140" as="targetPoint" />
          </mxGeometry>
        </mxCell>
        <mxCell id="hjbASBU64LTBlGOgySRt-6" value="" style="endArrow=classic;html=1;rounded=0;" parent="WIyWlLk6GJQsqaUBKTNV-1" edge="1">
          <mxGeometry width="50" height="50" relative="1" as="geometry">
            <mxPoint x="102" y="880" as="sourcePoint" />
            <mxPoint x="102" y="940" as="targetPoint" />
          </mxGeometry>
        </mxCell>
        <mxCell id="hjbASBU64LTBlGOgySRt-7" value="代码块1" style="rounded=1;whiteSpace=wrap;html=1;" parent="WIyWlLk6GJQsqaUBKTNV-1" vertex="1">
          <mxGeometry x="238" y="1040" width="80" height="30" as="geometry" />
        </mxCell>
        <mxCell id="hjbASBU64LTBlGOgySRt-8" value="beak" style="rounded=1;whiteSpace=wrap;html=1;" parent="WIyWlLk6GJQsqaUBKTNV-1" vertex="1">
          <mxGeometry x="400" y="1040" width="80" height="30" as="geometry" />
        </mxCell>
        <mxCell id="hjbASBU64LTBlGOgySRt-9" value="" style="endArrow=classic;html=1;rounded=0;exitX=1;exitY=0.5;exitDx=0;exitDy=0;entryX=0;entryY=0.5;entryDx=0;entryDy=0;" parent="WIyWlLk6GJQsqaUBKTNV-1" source="hjbASBU64LTBlGOgySRt-1" target="hjbASBU64LTBlGOgySRt-7" edge="1">
          <mxGeometry width="50" height="50" relative="1" as="geometry">
            <mxPoint x="160" y="1210" as="sourcePoint" />
            <mxPoint x="210" y="1160" as="targetPoint" />
          </mxGeometry>
        </mxCell>
        <mxCell id="hjbASBU64LTBlGOgySRt-12" value="true" style="edgeLabel;html=1;align=center;verticalAlign=middle;resizable=0;points=[];" parent="hjbASBU64LTBlGOgySRt-9" vertex="1" connectable="0">
          <mxGeometry x="-0.2571" y="1" relative="1" as="geometry">
            <mxPoint y="-8" as="offset" />
          </mxGeometry>
        </mxCell>
        <mxCell id="hjbASBU64LTBlGOgySRt-17" value="" style="endArrow=classic;html=1;rounded=0;exitX=1;exitY=0.5;exitDx=0;exitDy=0;entryX=0;entryY=0.5;entryDx=0;entryDy=0;" parent="hjbASBU64LTBlGOgySRt-9" edge="1">
          <mxGeometry width="50" height="50" relative="1" as="geometry">
            <mxPoint x="350" y="1724.5" as="sourcePoint" />
            <mxPoint x="420" y="1724.5" as="targetPoint" />
          </mxGeometry>
        </mxCell>
        <mxCell id="hjbASBU64LTBlGOgySRt-26" value="" style="endArrow=classic;html=1;rounded=0;exitX=1;exitY=0.5;exitDx=0;exitDy=0;entryX=0;entryY=0.5;entryDx=0;entryDy=0;" parent="hjbASBU64LTBlGOgySRt-9" edge="1">
          <mxGeometry width="50" height="50" relative="1" as="geometry">
            <mxPoint x="349" y="1894.5" as="sourcePoint" />
            <mxPoint x="419" y="1894.5" as="targetPoint" />
          </mxGeometry>
        </mxCell>
        <mxCell id="hjbASBU64LTBlGOgySRt-43" value="" style="endArrow=classic;html=1;rounded=0;exitX=1;exitY=0.5;exitDx=0;exitDy=0;entryX=0;entryY=0.5;entryDx=0;entryDy=0;" parent="hjbASBU64LTBlGOgySRt-9" edge="1">
          <mxGeometry width="50" height="50" relative="1" as="geometry">
            <mxPoint x="349" y="1974.5" as="sourcePoint" />
            <mxPoint x="419" y="1974.5" as="targetPoint" />
          </mxGeometry>
        </mxCell>
        <mxCell id="hjbASBU64LTBlGOgySRt-10" value="" style="endArrow=classic;html=1;rounded=0;exitX=1;exitY=0.5;exitDx=0;exitDy=0;entryX=0;entryY=0.5;entryDx=0;entryDy=0;" parent="WIyWlLk6GJQsqaUBKTNV-1" edge="1">
          <mxGeometry width="50" height="50" relative="1" as="geometry">
            <mxPoint x="330" y="1054.5" as="sourcePoint" />
            <mxPoint x="400" y="1054.5" as="targetPoint" />
          </mxGeometry>
        </mxCell>
        <mxCell id="hjbASBU64LTBlGOgySRt-11" value="" style="endArrow=classic;html=1;rounded=0;exitX=1;exitY=0.5;exitDx=0;exitDy=0;entryX=0;entryY=0.5;entryDx=0;entryDy=0;" parent="WIyWlLk6GJQsqaUBKTNV-1" source="hjbASBU64LTBlGOgySRt-7" edge="1">
          <mxGeometry width="50" height="50" relative="1" as="geometry">
            <mxPoint x="328.5" y="1054.5" as="sourcePoint" />
            <mxPoint x="398.5" y="1054.5" as="targetPoint" />
          </mxGeometry>
        </mxCell>
        <mxCell id="hjbASBU64LTBlGOgySRt-14" value="false" style="text;html=1;align=center;verticalAlign=middle;resizable=0;points=[];autosize=1;strokeColor=none;fillColor=none;" parent="WIyWlLk6GJQsqaUBKTNV-1" vertex="1">
          <mxGeometry x="95" y="1098" width="50" height="30" as="geometry" />
        </mxCell>
        <mxCell id="hjbASBU64LTBlGOgySRt-15" value="代码块2" style="rounded=1;whiteSpace=wrap;html=1;" parent="WIyWlLk6GJQsqaUBKTNV-1" vertex="1">
          <mxGeometry x="238" y="1150" width="80" height="30" as="geometry" />
        </mxCell>
        <mxCell id="hjbASBU64LTBlGOgySRt-16" value="beak" style="rounded=1;whiteSpace=wrap;html=1;" parent="WIyWlLk6GJQsqaUBKTNV-1" vertex="1">
          <mxGeometry x="400" y="1150" width="80" height="30" as="geometry" />
        </mxCell>
        <mxCell id="hjbASBU64LTBlGOgySRt-18" value="" style="endArrow=classic;html=1;rounded=0;exitX=1;exitY=0.5;exitDx=0;exitDy=0;entryX=0;entryY=0.5;entryDx=0;entryDy=0;" parent="WIyWlLk6GJQsqaUBKTNV-1" source="hjbASBU64LTBlGOgySRt-15" edge="1">
          <mxGeometry width="50" height="50" relative="1" as="geometry">
            <mxPoint x="328.5" y="1164.5" as="sourcePoint" />
            <mxPoint x="398.5" y="1164.5" as="targetPoint" />
          </mxGeometry>
        </mxCell>
        <mxCell id="hjbASBU64LTBlGOgySRt-19" value="" style="endArrow=classic;html=1;rounded=0;exitX=1;exitY=0.5;exitDx=0;exitDy=0;entryX=0;entryY=0.5;entryDx=0;entryDy=0;" parent="WIyWlLk6GJQsqaUBKTNV-1" edge="1">
          <mxGeometry width="50" height="50" relative="1" as="geometry">
            <mxPoint x="140" y="1164.5" as="sourcePoint" />
            <mxPoint x="238" y="1164.5" as="targetPoint" />
          </mxGeometry>
        </mxCell>
        <mxCell id="hjbASBU64LTBlGOgySRt-20" value="true" style="edgeLabel;html=1;align=center;verticalAlign=middle;resizable=0;points=[];" parent="hjbASBU64LTBlGOgySRt-19" vertex="1" connectable="0">
          <mxGeometry x="-0.2571" y="1" relative="1" as="geometry">
            <mxPoint y="-8" as="offset" />
          </mxGeometry>
        </mxCell>
        <mxCell id="hjbASBU64LTBlGOgySRt-21" value="" style="endArrow=classic;html=1;rounded=0;exitX=1;exitY=0.5;exitDx=0;exitDy=0;entryX=0;entryY=0.5;entryDx=0;entryDy=0;" parent="hjbASBU64LTBlGOgySRt-19" edge="1">
          <mxGeometry width="50" height="50" relative="1" as="geometry">
            <mxPoint x="350" y="1724.5" as="sourcePoint" />
            <mxPoint x="420" y="1724.5" as="targetPoint" />
          </mxGeometry>
        </mxCell>
        <mxCell id="hjbASBU64LTBlGOgySRt-30" value="true" style="edgeLabel;html=1;align=center;verticalAlign=middle;resizable=0;points=[];" parent="hjbASBU64LTBlGOgySRt-19" vertex="1" connectable="0">
          <mxGeometry x="-0.2571" y="1" relative="1" as="geometry">
            <mxPoint x="8" y="162" as="offset" />
          </mxGeometry>
        </mxCell>
        <mxCell id="hjbASBU64LTBlGOgySRt-31" value="" style="endArrow=classic;html=1;rounded=0;exitX=1;exitY=0.5;exitDx=0;exitDy=0;entryX=0;entryY=0.5;entryDx=0;entryDy=0;" parent="hjbASBU64LTBlGOgySRt-19" edge="1">
          <mxGeometry width="50" height="50" relative="1" as="geometry">
            <mxPoint x="349" y="1894.5" as="sourcePoint" />
            <mxPoint x="419" y="1894.5" as="targetPoint" />
          </mxGeometry>
        </mxCell>
        <mxCell id="hjbASBU64LTBlGOgySRt-44" value="true" style="edgeLabel;html=1;align=center;verticalAlign=middle;resizable=0;points=[];" parent="hjbASBU64LTBlGOgySRt-19" vertex="1" connectable="0">
          <mxGeometry x="-0.2571" y="1" relative="1" as="geometry">
            <mxPoint x="8" y="242" as="offset" />
          </mxGeometry>
        </mxCell>
        <mxCell id="hjbASBU64LTBlGOgySRt-45" value="" style="endArrow=classic;html=1;rounded=0;exitX=1;exitY=0.5;exitDx=0;exitDy=0;entryX=0;entryY=0.5;entryDx=0;entryDy=0;" parent="hjbASBU64LTBlGOgySRt-19" edge="1">
          <mxGeometry width="50" height="50" relative="1" as="geometry">
            <mxPoint x="349" y="1974.5" as="sourcePoint" />
            <mxPoint x="419" y="1974.5" as="targetPoint" />
          </mxGeometry>
        </mxCell>
        <mxCell id="hjbASBU64LTBlGOgySRt-22" value="" style="endArrow=classic;html=1;rounded=0;entryX=0.545;entryY=-0.019;entryDx=0;entryDy=0;entryPerimeter=0;" parent="WIyWlLk6GJQsqaUBKTNV-1" target="hjbASBU64LTBlGOgySRt-23" edge="1">
          <mxGeometry width="50" height="50" relative="1" as="geometry">
            <mxPoint x="102" y="1190" as="sourcePoint" />
            <mxPoint x="102" y="1240" as="targetPoint" />
          </mxGeometry>
        </mxCell>
        <mxCell id="hjbASBU64LTBlGOgySRt-23" value="..." style="rounded=1;whiteSpace=wrap;html=1;" parent="WIyWlLk6GJQsqaUBKTNV-1" vertex="1">
          <mxGeometry x="58.75" y="1236" width="80" height="30" as="geometry" />
        </mxCell>
        <mxCell id="hjbASBU64LTBlGOgySRt-24" value="" style="endArrow=classic;html=1;rounded=0;entryX=0.545;entryY=-0.019;entryDx=0;entryDy=0;entryPerimeter=0;" parent="WIyWlLk6GJQsqaUBKTNV-1" edge="1">
          <mxGeometry width="50" height="50" relative="1" as="geometry">
            <mxPoint x="101.05" y="1266" as="sourcePoint" />
            <mxPoint x="101.05" y="1311" as="targetPoint" />
          </mxGeometry>
        </mxCell>
        <mxCell id="hjbASBU64LTBlGOgySRt-25" value="表达式3" style="rhombus;whiteSpace=wrap;html=1;" parent="WIyWlLk6GJQsqaUBKTNV-1" vertex="1">
          <mxGeometry x="63.75" y="1310" width="75" height="50" as="geometry" />
        </mxCell>
        <mxCell id="hjbASBU64LTBlGOgySRt-27" value="代码块3" style="rounded=1;whiteSpace=wrap;html=1;" parent="WIyWlLk6GJQsqaUBKTNV-1" vertex="1">
          <mxGeometry x="237" y="1320" width="80" height="30" as="geometry" />
        </mxCell>
        <mxCell id="hjbASBU64LTBlGOgySRt-28" value="beak" style="rounded=1;whiteSpace=wrap;html=1;" parent="WIyWlLk6GJQsqaUBKTNV-1" vertex="1">
          <mxGeometry x="399" y="1320" width="80" height="30" as="geometry" />
        </mxCell>
        <mxCell id="hjbASBU64LTBlGOgySRt-29" value="" style="endArrow=classic;html=1;rounded=0;exitX=1;exitY=0.5;exitDx=0;exitDy=0;entryX=0;entryY=0.5;entryDx=0;entryDy=0;" parent="WIyWlLk6GJQsqaUBKTNV-1" source="hjbASBU64LTBlGOgySRt-27" edge="1">
          <mxGeometry width="50" height="50" relative="1" as="geometry">
            <mxPoint x="327.5" y="1334.5" as="sourcePoint" />
            <mxPoint x="397.5" y="1334.5" as="targetPoint" />
          </mxGeometry>
        </mxCell>
        <mxCell id="hjbASBU64LTBlGOgySRt-32" value="" style="endArrow=classic;html=1;rounded=0;exitX=1;exitY=0.5;exitDx=0;exitDy=0;entryX=0;entryY=0.5;entryDx=0;entryDy=0;" parent="WIyWlLk6GJQsqaUBKTNV-1" edge="1">
          <mxGeometry width="50" height="50" relative="1" as="geometry">
            <mxPoint x="139" y="1334.5" as="sourcePoint" />
            <mxPoint x="237" y="1334.5" as="targetPoint" />
          </mxGeometry>
        </mxCell>
        <mxCell id="hjbASBU64LTBlGOgySRt-33" value="true" style="edgeLabel;html=1;align=center;verticalAlign=middle;resizable=0;points=[];" parent="hjbASBU64LTBlGOgySRt-32" vertex="1" connectable="0">
          <mxGeometry x="-0.2571" y="1" relative="1" as="geometry">
            <mxPoint y="-8" as="offset" />
          </mxGeometry>
        </mxCell>
        <mxCell id="hjbASBU64LTBlGOgySRt-34" value="" style="endArrow=classic;html=1;rounded=0;exitX=1;exitY=0.5;exitDx=0;exitDy=0;entryX=0;entryY=0.5;entryDx=0;entryDy=0;" parent="hjbASBU64LTBlGOgySRt-32" edge="1">
          <mxGeometry width="50" height="50" relative="1" as="geometry">
            <mxPoint x="350" y="1724.5" as="sourcePoint" />
            <mxPoint x="420" y="1724.5" as="targetPoint" />
          </mxGeometry>
        </mxCell>
        <mxCell id="hjbASBU64LTBlGOgySRt-36" value="" style="endArrow=classic;html=1;rounded=0;exitX=1;exitY=0.5;exitDx=0;exitDy=0;entryX=0;entryY=0.5;entryDx=0;entryDy=0;" parent="hjbASBU64LTBlGOgySRt-32" edge="1">
          <mxGeometry width="50" height="50" relative="1" as="geometry">
            <mxPoint x="355" y="1894.5" as="sourcePoint" />
            <mxPoint x="425" y="1894.5" as="targetPoint" />
          </mxGeometry>
        </mxCell>
        <mxCell id="hjbASBU64LTBlGOgySRt-37" value="" style="endArrow=classic;html=1;rounded=0;entryX=0.537;entryY=0.047;entryDx=0;entryDy=0;entryPerimeter=0;" parent="WIyWlLk6GJQsqaUBKTNV-1" target="hjbASBU64LTBlGOgySRt-39" edge="1">
          <mxGeometry width="50" height="50" relative="1" as="geometry">
            <mxPoint x="101.22" y="1360" as="sourcePoint" />
            <mxPoint x="101.22" y="1405" as="targetPoint" />
          </mxGeometry>
        </mxCell>
        <mxCell id="hjbASBU64LTBlGOgySRt-40" value="false" style="edgeLabel;html=1;align=center;verticalAlign=middle;resizable=0;points=[];" parent="hjbASBU64LTBlGOgySRt-37" vertex="1" connectable="0">
          <mxGeometry x="0.0036" y="3" relative="1" as="geometry">
            <mxPoint x="12" y="-1" as="offset" />
          </mxGeometry>
        </mxCell>
        <mxCell id="hjbASBU64LTBlGOgySRt-41" value="false" style="edgeLabel;html=1;align=center;verticalAlign=middle;resizable=0;points=[];" parent="hjbASBU64LTBlGOgySRt-37" vertex="1" connectable="0">
          <mxGeometry x="0.0036" y="3" relative="1" as="geometry">
            <mxPoint x="13" y="-91" as="offset" />
          </mxGeometry>
        </mxCell>
        <mxCell id="hjbASBU64LTBlGOgySRt-42" value="false" style="edgeLabel;html=1;align=center;verticalAlign=middle;resizable=0;points=[];" parent="hjbASBU64LTBlGOgySRt-37" vertex="1" connectable="0">
          <mxGeometry x="0.0036" y="3" relative="1" as="geometry">
            <mxPoint x="12" y="-171" as="offset" />
          </mxGeometry>
        </mxCell>
        <mxCell id="hjbASBU64LTBlGOgySRt-39" value="default" style="rounded=1;whiteSpace=wrap;html=1;" parent="WIyWlLk6GJQsqaUBKTNV-1" vertex="1">
          <mxGeometry x="58.75" y="1400" width="80" height="30" as="geometry" />
        </mxCell>
        <mxCell id="hjbASBU64LTBlGOgySRt-46" value="代码块3" style="rounded=1;whiteSpace=wrap;html=1;" parent="WIyWlLk6GJQsqaUBKTNV-1" vertex="1">
          <mxGeometry x="237" y="1400" width="80" height="30" as="geometry" />
        </mxCell>
        <mxCell id="hjbASBU64LTBlGOgySRt-47" value="beak" style="rounded=1;whiteSpace=wrap;html=1;" parent="WIyWlLk6GJQsqaUBKTNV-1" vertex="1">
          <mxGeometry x="399" y="1400" width="80" height="30" as="geometry" />
        </mxCell>
        <mxCell id="hjbASBU64LTBlGOgySRt-48" value="" style="endArrow=classic;html=1;rounded=0;exitX=1;exitY=0.5;exitDx=0;exitDy=0;entryX=0;entryY=0.5;entryDx=0;entryDy=0;" parent="WIyWlLk6GJQsqaUBKTNV-1" source="hjbASBU64LTBlGOgySRt-46" edge="1">
          <mxGeometry width="50" height="50" relative="1" as="geometry">
            <mxPoint x="327.5" y="1414.5" as="sourcePoint" />
            <mxPoint x="397.5" y="1414.5" as="targetPoint" />
          </mxGeometry>
        </mxCell>
        <mxCell id="hjbASBU64LTBlGOgySRt-49" value="" style="endArrow=classic;html=1;rounded=0;exitX=1;exitY=0.5;exitDx=0;exitDy=0;entryX=0;entryY=0.5;entryDx=0;entryDy=0;" parent="WIyWlLk6GJQsqaUBKTNV-1" edge="1">
          <mxGeometry width="50" height="50" relative="1" as="geometry">
            <mxPoint x="139" y="1414.5" as="sourcePoint" />
            <mxPoint x="237" y="1414.5" as="targetPoint" />
          </mxGeometry>
        </mxCell>
        <mxCell id="hjbASBU64LTBlGOgySRt-50" value="true" style="edgeLabel;html=1;align=center;verticalAlign=middle;resizable=0;points=[];" parent="hjbASBU64LTBlGOgySRt-49" vertex="1" connectable="0">
          <mxGeometry x="-0.2571" y="1" relative="1" as="geometry">
            <mxPoint y="-8" as="offset" />
          </mxGeometry>
        </mxCell>
        <mxCell id="hjbASBU64LTBlGOgySRt-51" value="" style="endArrow=classic;html=1;rounded=0;exitX=1;exitY=0.5;exitDx=0;exitDy=0;entryX=0;entryY=0.5;entryDx=0;entryDy=0;" parent="hjbASBU64LTBlGOgySRt-49" edge="1">
          <mxGeometry width="50" height="50" relative="1" as="geometry">
            <mxPoint x="350" y="1724.5" as="sourcePoint" />
            <mxPoint x="420" y="1724.5" as="targetPoint" />
          </mxGeometry>
        </mxCell>
        <mxCell id="hjbASBU64LTBlGOgySRt-52" value="" style="endArrow=classic;html=1;rounded=0;exitX=1;exitY=0.5;exitDx=0;exitDy=0;entryX=0;entryY=0.5;entryDx=0;entryDy=0;" parent="hjbASBU64LTBlGOgySRt-49" edge="1">
          <mxGeometry width="50" height="50" relative="1" as="geometry">
            <mxPoint x="355" y="1894.5" as="sourcePoint" />
            <mxPoint x="425" y="1894.5" as="targetPoint" />
          </mxGeometry>
        </mxCell>
        <mxCell id="hjbASBU64LTBlGOgySRt-53" value="" style="endArrow=classic;html=1;rounded=0;exitX=1;exitY=0.5;exitDx=0;exitDy=0;entryX=1;entryY=0.5;entryDx=0;entryDy=0;" parent="WIyWlLk6GJQsqaUBKTNV-1" source="hjbASBU64LTBlGOgySRt-8" target="hjbASBU64LTBlGOgySRt-55" edge="1">
          <mxGeometry width="50" height="50" relative="1" as="geometry">
            <mxPoint x="220" y="1320" as="sourcePoint" />
            <mxPoint x="490" y="1520" as="targetPoint" />
            <Array as="points">
              <mxPoint x="560" y="1055" />
              <mxPoint x="560" y="1160" />
              <mxPoint x="560" y="1280" />
              <mxPoint x="560" y="1510" />
            </Array>
          </mxGeometry>
        </mxCell>
        <mxCell id="hjbASBU64LTBlGOgySRt-55" value="剩余代码&lt;br&gt;" style="rounded=1;whiteSpace=wrap;html=1;" parent="WIyWlLk6GJQsqaUBKTNV-1" vertex="1">
          <mxGeometry x="60" y="1495" width="80" height="30" as="geometry" />
        </mxCell>
        <mxCell id="hjbASBU64LTBlGOgySRt-56" value="" style="endArrow=none;html=1;rounded=0;entryX=1;entryY=0.5;entryDx=0;entryDy=0;" parent="WIyWlLk6GJQsqaUBKTNV-1" target="hjbASBU64LTBlGOgySRt-16" edge="1">
          <mxGeometry width="50" height="50" relative="1" as="geometry">
            <mxPoint x="560" y="1165" as="sourcePoint" />
            <mxPoint x="270" y="1270" as="targetPoint" />
          </mxGeometry>
        </mxCell>
        <mxCell id="hjbASBU64LTBlGOgySRt-57" value="" style="endArrow=none;html=1;rounded=0;entryX=1;entryY=0.5;entryDx=0;entryDy=0;" parent="WIyWlLk6GJQsqaUBKTNV-1" edge="1">
          <mxGeometry width="50" height="50" relative="1" as="geometry">
            <mxPoint x="559" y="1334.29" as="sourcePoint" />
            <mxPoint x="479" y="1334.29" as="targetPoint" />
          </mxGeometry>
        </mxCell>
        <mxCell id="hjbASBU64LTBlGOgySRt-58" value="" style="endArrow=none;html=1;rounded=0;entryX=1;entryY=0.5;entryDx=0;entryDy=0;" parent="WIyWlLk6GJQsqaUBKTNV-1" edge="1">
          <mxGeometry width="50" height="50" relative="1" as="geometry">
            <mxPoint x="559" y="1415" as="sourcePoint" />
            <mxPoint x="479" y="1415" as="targetPoint" />
          </mxGeometry>
        </mxCell>
      </root>
    </mxGraphModel>
  </diagram>
</mxfile>
